<svg width="23" height="23" viewBox="0 0 23 23" fill="none" xmlns="http://www.w3.org/2000/svg">
<g clip-path="url(#clip0_59_663)">
<path d="M5.75 5.75H8.625V8.625H5.75V5.75ZM14.375 17.25H17.25V14.375H14.375V17.25ZM5.75 17.25H8.625V14.375H5.75V17.25ZM14.375 8.625H17.25V5.75H14.375V8.625ZM23 4.79167V18.2083C23 20.8505 20.8505 23 18.2083 23H4.79167C2.14954 23 0 20.8505 0 18.2083V4.79167C0 2.14954 2.14954 0 4.79167 0H18.2083C20.8505 0 23 2.14954 23 4.79167ZM10.5417 13.8958C10.5417 13.1033 9.89671 12.4583 9.10417 12.4583H5.27083C4.47829 12.4583 3.83333 13.1033 3.83333 13.8958V17.7292C3.83333 18.5217 4.47829 19.1667 5.27083 19.1667H9.10417C9.89671 19.1667 10.5417 18.5217 10.5417 17.7292V13.8958ZM10.5417 5.27083C10.5417 4.47829 9.89671 3.83333 9.10417 3.83333H5.27083C4.47829 3.83333 3.83333 4.47829 3.83333 5.27083V9.10417C3.83333 9.89671 4.47829 10.5417 5.27083 10.5417H9.10417C9.89671 10.5417 10.5417 9.89671 10.5417 9.10417V5.27083ZM19.1667 13.8958C19.1667 13.1033 18.5217 12.4583 17.7292 12.4583H13.8958C13.1033 12.4583 12.4583 13.1033 12.4583 13.8958V17.7292C12.4583 18.5217 13.1033 19.1667 13.8958 19.1667H17.7292C18.5217 19.1667 19.1667 18.5217 19.1667 17.7292V13.8958ZM19.1667 5.27083C19.1667 4.47829 18.5217 3.83333 17.7292 3.83333H13.8958C13.1033 3.83333 12.4583 4.47829 12.4583 5.27083V9.10417C12.4583 9.89671 13.1033 10.5417 13.8958 10.5417H17.7292C18.5217 10.5417 19.1667 9.89671 19.1667 9.10417V5.27083Z" fill="#A5A5A5"/>
</g>
<defs>
<clipPath id="clip0_59_663">
<rect width="23" height="23" fill="white"/>
</clipPath>
</defs>
</svg>
