<?xml version="1.0" encoding="UTF-8"?>
<svg version="1.1" xmlns="http://www.w3.org/2000/svg" width="512" height="512">
<path d="M0 0 C0.85360107 -0.00974854 1.70720215 -0.01949707 2.58666992 -0.02954102 C21.40098424 -0.20014597 39.48500013 -0.01501218 57.91015625 4.23828125 C58.75433105 4.42551758 59.59850586 4.61275391 60.46826172 4.80566406 C100.84827892 13.93670486 135.43495481 34.57741532 164.91015625 63.23828125 C165.70035156 63.98851562 166.49054688 64.73875 167.3046875 65.51171875 C198.02915955 95.20598168 218.00009581 137.4483926 224.91015625 179.23828125 C225.1215625 180.46675781 225.33296875 181.69523438 225.55078125 182.9609375 C233.93982736 238.02903303 219.94879807 296.13718005 187.37817383 341.30004883 C173.82485096 359.66450796 156.64133813 380.87269031 135.91015625 391.23828125 C128.84828 391.81712357 128.84828 391.81712357 124.97265625 389.42578125 C122.27983563 386.56975938 121.94851283 384.75609514 121.66015625 380.86328125 C121.97470161 376.30237356 123.14784462 373.86101949 126.54394531 370.73388672 C128.55477481 369.07153942 130.5967082 367.4598177 132.66015625 365.86328125 C138.10682948 361.61568907 143.11752538 357.21524407 147.91015625 352.23828125 C152.91015625 347.23828125 152.91015625 347.23828125 154.44384766 345.77709961 C159.07741566 341.29789477 162.9876289 336.49992301 166.78515625 331.30078125 C167.69914185 330.05071289 167.69914185 330.05071289 168.6315918 328.77539062 C174.05047865 321.24330283 178.71565392 313.50722167 182.91015625 305.23828125 C183.48008301 304.12501465 183.48008301 304.12501465 184.06152344 302.98925781 C206.78557871 258.15936146 211.79795552 205.71748083 196.66699219 157.52294922 C190.03325345 137.4976179 180.68413681 118.07671018 167.91015625 101.23828125 C167.46639648 100.64934082 167.02263672 100.06040039 166.56542969 99.45361328 C161.40233401 92.62954937 156.19555818 86.07472589 149.91015625 80.23828125 C144.91015625 75.23828125 144.91015625 75.23828125 143.45117188 73.70458984 C138.9591855 69.05294206 134.13507808 65.16094637 128.91015625 61.36328125 C128.07419922 60.75395752 127.23824219 60.14463379 126.37695312 59.5168457 C100.79548699 41.08443346 72.06606342 29.26873349 40.91015625 24.23828125 C39.62882813 24.01398437 38.3475 23.7896875 37.02734375 23.55859375 C-9.66697642 16.44234036 -60.84297119 29.20787827 -99.03125 56.91796875 C-100.04058594 57.68367188 -101.04992187 58.449375 -102.08984375 59.23828125 C-102.67878418 59.68204102 -103.26772461 60.12580078 -103.87451172 60.58300781 C-110.69857563 65.74610349 -117.25339911 70.95287932 -123.08984375 77.23828125 C-128.08984375 82.23828125 -128.08984375 82.23828125 -129.62353516 83.69726562 C-134.27515449 88.18922454 -138.16735155 93.01326461 -141.96484375 98.23828125 C-142.57489258 99.07568848 -143.18494141 99.9130957 -143.81347656 100.77587891 C-162.3045228 126.44919561 -173.26833089 154.24643105 -179.08984375 185.23828125 C-179.22406738 185.94098145 -179.35829102 186.64368164 -179.49658203 187.36767578 C-187.59885467 231.84470826 -175.61244912 282.15190743 -151.02734375 319.73828125 C-149.73260178 321.58419852 -148.42003583 323.41774386 -147.08984375 325.23828125 C-146.37054688 326.24117188 -145.65125 327.2440625 -144.91015625 328.27734375 C-140.59707924 334.1723798 -136.03276371 339.69711404 -131.078125 345.0625 C-129.48277554 346.80829499 -127.99048643 348.57116227 -126.52734375 350.42578125 C-120.26923655 357.64667418 -112.27897032 363.40077747 -104.83007812 369.33984375 C-104.10240234 369.93023437 -103.37472656 370.520625 -102.625 371.12890625 C-101.64092163 371.9182959 -101.64092163 371.9182959 -100.63696289 372.72363281 C-98.19231273 375.11697502 -98.08764429 377.26797394 -97.83984375 380.61328125 C-98.10805026 384.50227561 -98.67687145 386.22206587 -101.08984375 389.23828125 C-104.54803512 391.83192478 -107.89571137 391.7883314 -112.08984375 391.23828125 C-115.40866815 389.64706407 -118.19830052 387.5010356 -121.08984375 385.23828125 C-122.49169922 384.14193359 -122.49169922 384.14193359 -123.921875 383.0234375 C-138.20163752 371.51119514 -151.59759752 358.31164907 -162.08984375 343.23828125 C-162.69119141 342.3875 -162.69119141 342.3875 -163.3046875 341.51953125 C-196.89553844 293.80168693 -210.41662394 236.00730065 -200.80737305 178.35620117 C-192.82119379 133.40202265 -171.76998572 94.81854483 -140.08984375 62.23828125 C-139.33960938 61.44808594 -138.589375 60.65789063 -137.81640625 59.84375 C-103.20594395 24.03251656 -49.69937553 0.47160724 0 0 Z " fill="#000000" transform="translate(244.08984375,-0.23828125)"/>
<path d="M0 0 C7.89677183 7.38850237 13.27939496 14.71527992 14.75 25.625 C16.23225919 76.82452576 5.90541072 147.4978375 -28.1875 188 C-39.81328749 199.73477925 -57.43598516 201.76104663 -73.1796875 201.859375 C-73.93217773 201.86130859 -74.68466797 201.86324219 -75.45996094 201.86523438 C-77.71588244 201.87485451 -79.97085752 201.90588258 -82.2265625 201.9375 C-98.01843501 202.05335349 -115.64537323 200.00626198 -127.52734375 188.5390625 C-130.58725976 185.13915583 -132.95878205 181.58054091 -135.25 177.625 C-135.91644531 176.48933594 -136.58289063 175.35367188 -137.26953125 174.18359375 C-160.0823168 133.94874993 -169.28370861 85.39866963 -171.0625 39.625 C-171.11567383 38.36655273 -171.16884766 37.10810547 -171.22363281 35.81152344 C-171.65137984 21.51089996 -168.61701896 12.09730819 -158.75 1.5 C-152.92049464 -4.06770123 -146.40726806 -7.82763748 -139.25 -11.375 C-138.15945312 -11.92027344 -137.06890625 -12.46554687 -135.9453125 -13.02734375 C-95.43697448 -31.75649297 -34.80463659 -30.15713319 0 0 Z M-146.25 19.625 C-150.04985953 24.3058574 -149.71018548 28.93062593 -149.625 34.6875 C-149.61484863 35.69482178 -149.60469727 36.70214355 -149.59423828 37.73999023 C-148.98548647 68.64240311 -143.20348415 99.40034278 -133.25 128.625 C-132.96511719 129.47126953 -132.68023437 130.31753906 -132.38671875 131.18945312 C-128.76207769 141.83993952 -124.50490635 151.99436764 -119.17138672 161.90478516 C-118.32183741 163.49088066 -117.50503157 165.09439889 -116.69140625 166.69921875 C-114.16271807 171.39339599 -111.93520914 174.8622787 -106.87890625 176.88671875 C-91.47625172 181.21227849 -75.8944272 181.98811968 -60.125 179.375 C-59.45082031 179.26591309 -58.77664063 179.15682617 -58.08203125 179.04443359 C-51.55696012 177.80719968 -45.44073509 175.86530667 -41.5625 170.18359375 C-40.76607885 168.82457081 -39.99623959 167.44971176 -39.25 166.0625 C-38.83266602 165.31798584 -38.41533203 164.57347168 -37.98535156 163.80639648 C-16.93352959 125.29823698 -7.69531369 78.33475527 -6.6875 34.875 C-6.64842529 33.95315918 -6.60935059 33.03131836 -6.5690918 32.08154297 C-6.54195835 25.28808484 -8.55680145 21.47998339 -13.25 16.625 C-33.16211414 -1.71869419 -64.15555951 -3.3364146 -89.62207031 -2.5703125 C-108.9755874 -1.52840041 -132.67904388 4.97412695 -146.25 19.625 Z " fill="#000000" transform="translate(334.25,310.375)"/>
<path d="M0 0 C0.63421875 0.51175781 1.2684375 1.02351563 1.921875 1.55078125 C6.4730402 5.28636153 10.27413989 9.44950285 14 14 C14.77472656 14.93714844 15.54945313 15.87429687 16.34765625 16.83984375 C38.78340344 44.58862837 48.72370244 80.06919223 45.28466797 115.50439453 C42.65394727 138.56719636 34.33107772 167.9744862 16.0078125 183.7109375 C12.89395697 185.71010545 10.61812303 185.43667002 7 185 C1.46153846 181.92307692 1.46153846 181.92307692 0 179 C-1.08088067 171.69424235 0.98949073 167.34663162 5.0625 161.4375 C20.73322457 137.21521698 26.73948925 109.29687191 21.875 80.625 C17.6064825 61.30747662 9.49606838 44.3370928 -3 29 C-3.61230469 28.22269531 -4.22460938 27.44539063 -4.85546875 26.64453125 C-22.3840718 5.52798387 -50.13911392 -6.98030724 -77 -10 C-89.97472868 -10.68585906 -102.39021827 -10.21425809 -115 -7 C-115.96897217 -6.75854248 -115.96897217 -6.75854248 -116.95751953 -6.51220703 C-133.06741711 -2.38461575 -147.19690425 5.46075031 -160 16 C-160.77472656 16.61101562 -161.54945313 17.22203125 -162.34765625 17.8515625 C-181.93596375 34.08878388 -193.11576817 58.5537935 -198 83 C-198.19464844 83.93199219 -198.38929688 84.86398438 -198.58984375 85.82421875 C-202.23236117 114.02771077 -195.31400291 143.04475671 -178.4375 166 C-175.90849177 169.64516269 -175.16243457 172.54904039 -175.46484375 176.984375 C-176.35101554 180.32207312 -178.32401543 181.96115462 -181 184 C-184.61734245 185.80867123 -188.22103626 185.16804334 -192 184 C-208.59551048 172.00452441 -216.59733221 143.22971662 -220.25 124.1875 C-225.31450962 88.49244664 -218.21041952 51.78227856 -196.77490234 22.31591797 C-194.31189638 19.0956804 -191.68104559 16.03886405 -189 13 C-188.46761719 12.34773438 -187.93523437 11.69546875 -187.38671875 11.0234375 C-183.67800711 6.48501409 -179.52962284 2.70876862 -175 -1 C-174.06285156 -1.77472656 -173.12570313 -2.54945312 -172.16015625 -3.34765625 C-121.69660098 -44.14899525 -49.05280511 -41.37727625 0 0 Z " fill="#000000" transform="translate(344,114)"/>
<path d="M0 0 C3.90799122 3.81917324 6.83220481 8.08307686 9.75 12.6875 C10.15476562 13.32558594 10.55953125 13.96367187 10.9765625 14.62109375 C17.75684561 26.65480233 17.77249954 40.06476836 14.7890625 53.0859375 C10.80275639 66.90313387 2.63195469 76.71078514 -9.5234375 84.0625 C-23.4922442 91.65719102 -37.39596835 92.15384078 -52.40234375 87.953125 C-57.57255292 86.35917747 -61.91404556 83.90527695 -66.25 80.6875 C-66.89324219 80.213125 -67.53648437 79.73875 -68.19921875 79.25 C-80.44624562 69.47363148 -85.55270299 55.66135931 -87.53515625 40.5078125 C-88.2352893 26.32250804 -81.81537553 13.39480454 -73.08984375 2.68359375 C-64.83360319 -6.27381373 -52.72360227 -11.92818325 -40.67578125 -13.21484375 C-24.12665774 -13.88107255 -13.23205795 -9.41511815 0 0 Z M-59.25 19.6875 C-64.63773657 28.50623299 -67.04402453 37.13314369 -64.6015625 47.41796875 C-61.59640511 55.70141541 -56.87815769 61.60553179 -49 65.625 C-40.84401436 69.36104932 -32.59036834 70.24150572 -24 67.125 C-14.86734909 62.91782374 -10.00149345 56.89717492 -6.25 47.6875 C-3.75090293 40.19020879 -4.66163955 32.10644097 -7.93359375 25.00390625 C-12.94585832 16.18410539 -19.75102609 11.85382464 -29.25 8.6875 C-41.16251919 7.58146702 -51.3223529 10.35049342 -59.25 19.6875 Z " fill="#000000" transform="translate(291.25,176.3125)"/>
</svg>
