<svg width="24" height="24" viewBox="0 0 24 24" fill="none" xmlns="http://www.w3.org/2000/svg">
<g clip-path="url(#clip0_59_645)">
<path d="M10.0001 11.9999C10.0001 10.8949 10.8951 9.99988 12.0001 9.99988C13.1051 9.99988 14.0001 10.8949 14.0001 11.9999C14.0001 13.1049 13.1051 13.9999 12.0001 13.9999C10.8951 13.9999 10.0001 13.1049 10.0001 11.9999ZM13.9401 16.4129C13.2741 16.1949 12.5301 15.9999 12.0001 15.9999C11.4741 15.9999 10.7361 16.1919 10.0731 16.4079C9.16211 16.7049 8.61911 17.6369 8.79611 18.5789L9.65211 22.4329C9.85511 23.3479 10.6671 23.9989 11.6041 23.9989H12.4501C13.3951 23.9989 14.2111 23.3369 14.4071 22.4129L15.2201 18.5669C15.3871 17.6299 14.8451 16.7079 13.9401 16.4129ZM18.2061 15.1849C19.6001 12.4649 19.0961 9.19688 16.9501 7.05088C15.6281 5.72888 13.8701 4.99988 12.0001 4.99988C10.1301 4.99988 8.37211 5.72888 7.05011 7.05088C4.90411 9.19688 4.40011 12.4649 5.79411 15.1849C6.17211 15.9199 7.07411 16.2129 7.81411 15.8349C8.55111 15.4569 8.84211 14.5529 8.46411 13.8149C7.66611 12.2589 7.95011 10.3929 9.17211 9.17088C10.6841 7.65888 13.3181 7.65888 14.8291 9.17088C16.0501 10.3929 16.3351 12.2589 15.5371 13.8149C15.1591 14.5519 15.4511 15.4569 16.1871 15.8349C16.4061 15.9469 16.6401 15.9999 16.8701 15.9999C17.4151 15.9999 17.9411 15.7019 18.2061 15.1849ZM20.4851 3.51488C15.8071 -1.16512 8.19311 -1.16512 3.51511 3.51488C-1.16389 8.19288 -1.16389 15.8069 3.51511 20.4849C3.84711 20.8169 4.20211 21.1319 4.57111 21.4229C4.84611 21.6409 5.17411 21.7459 5.50011 21.7459C5.94311 21.7459 6.38211 21.5509 6.67811 21.1759C7.19111 20.5259 7.08011 19.5819 6.43011 19.0699C6.15211 18.8499 5.88511 18.6129 5.63611 18.3639C2.12711 14.8539 2.12711 9.14488 5.63611 5.63488C9.14511 2.12488 14.8551 2.12688 18.3651 5.63488C21.8741 9.14488 21.8741 14.8539 18.3661 18.3619C18.1131 18.6149 17.8451 18.8529 17.5701 19.0699C16.9211 19.5839 16.8101 20.5269 17.3241 21.1769C17.8381 21.8249 18.7821 21.9369 19.4311 21.4229C19.7951 21.1349 20.1491 20.8189 20.4851 20.4849C25.1641 15.8059 25.1641 8.19388 20.4851 3.51488Z" fill="white"/>
</g>
<defs>
<clipPath id="clip0_59_645">
<rect width="24" height="24" fill="white"/>
</clipPath>
</defs>
</svg>
