<svg width="27" height="27" viewBox="0 0 27 27" fill="none" xmlns="http://www.w3.org/2000/svg">
<g clip-path="url(#clip0_75_2939)">
<path d="M20.9464 23.2812C21.2452 24.2049 20.185 24.9697 19.4027 24.3947L14.0923 20.4917C13.7399 20.2328 13.2602 20.2328 12.9079 20.4917L7.59741 24.3947C6.81512 24.9697 5.75493 24.2049 6.05374 23.2812L8.1024 16.948C8.23528 16.5372 8.08952 16.0875 7.74091 15.8327L2.40285 11.9324C1.62179 11.3617 2.02547 10.125 2.99282 10.125H9.56563C10.0002 10.125 10.385 9.8443 10.5178 9.43052L12.5479 3.10436C12.845 2.17843 14.1551 2.17843 14.4522 3.10435L16.4823 9.43051C16.6151 9.8443 17 10.125 17.4345 10.125H24.0065C24.9739 10.125 25.3776 11.3616 24.5966 11.9323L19.2592 15.8327C18.9106 16.0875 18.7649 16.5371 18.8977 16.9479L20.9464 23.2812Z" fill="#7B61FF"/>
</g>
<defs>
<clipPath id="clip0_75_2939">
<rect width="27" height="27" fill="white"/>
</clipPath>
</defs>
</svg>
