<svg width="24" height="24" viewBox="0 0 24 24" fill="none" xmlns="http://www.w3.org/2000/svg">
<g clip-path="url(#clip0_60_669)">
<path d="M24 20.5C24 20.5 24 20.503 24 20.504C24 21.885 22.881 23.004 21.5 23.004C20.119 23.004 19 21.885 19 20.504C19 19.123 20.119 18.004 21.5 18.004C21.671 18.004 21.838 18.022 22 18.054V14.137C22 13.843 21.877 13.575 21.655 13.382C21.432 13.189 21.151 13.107 20.858 13.147L18.288 13.514C17.554 13.619 17 14.258 17 14.999V21.503C17 22.884 15.881 24.003 14.5 24.003C13.119 24.003 12 22.884 12 21.503C12 20.122 13.119 19.003 14.5 19.003C14.671 19.003 14.838 19.021 15 19.053V14.999C15 13.269 16.292 11.779 18.005 11.534L20.576 11.167C21.437 11.042 22.308 11.3 22.966 11.871C23.623 12.441 24 13.267 24 14.137V20.5ZM8 12C11.309 12 14 9.309 14 6C14 2.691 11.309 0 8 0C4.691 0 2 2.691 2 6C2 9.309 4.691 12 8 12ZM13 17.261V15C13 14.984 13.004 14.968 13.004 14.952C11.796 14.348 10.439 14 9 14C4.038 14 0 18.038 0 23C0 23.552 0.448 24 1 24H10.76C10.281 23.285 10 22.427 10 21.504C10 19.548 11.254 17.88 13 17.261Z" fill="#A5A5A5"/>
</g>
<defs>
<clipPath id="clip0_60_669">
<rect width="24" height="24" fill="white"/>
</clipPath>
</defs>
</svg>
