<svg width="43" height="43" viewBox="0 0 43 43" fill="none" xmlns="http://www.w3.org/2000/svg">
<circle cx="21.5" cy="21.5" r="21" transform="matrix(1 0 0 -1 0 43)" stroke="#E4E4E4"/>
<path d="M29.875 17.4998C29.7272 17.4998 29.5809 17.529 29.4443 17.5856C29.3078 17.6422 29.1838 17.7252 29.0793 17.8298L23.326 23.5831C23.1519 23.7572 22.9452 23.8954 22.7177 23.9896C22.4902 24.0839 22.2463 24.1324 22 24.1324C21.7538 24.1324 21.5099 24.0839 21.2824 23.9896C21.0549 23.8954 20.8482 23.7572 20.674 23.5831L14.9275 17.8366C14.7154 17.6316 14.4312 17.5182 14.1362 17.5208C13.8412 17.5234 13.5591 17.6417 13.3505 17.8503C13.1419 18.0588 13.0236 18.341 13.021 18.636C13.0185 18.9309 13.1319 19.2151 13.3368 19.4273L19.0833 25.1738C19.8574 25.9464 20.9064 26.3804 22 26.3804C23.0937 26.3804 24.1427 25.9464 24.9168 25.1738L30.6708 19.4198C30.828 19.2624 30.935 19.062 30.9783 18.8438C31.0216 18.6257 30.9992 18.3995 30.9141 18.1941C30.8289 17.9886 30.6848 17.813 30.4998 17.6894C30.3149 17.5658 30.0975 17.4998 29.875 17.4998Z" fill="#E4E4E4"/>
</svg>
