<svg width="30" height="30" viewBox="0 0 30 30" fill="none" xmlns="http://www.w3.org/2000/svg">
<g clip-path="url(#clip0_60_1775)">
<path d="M1.301 15C1.93329 14.9917 2.46843 15.4652 2.53727 16.0938C3.12081 22.9934 9.18714 28.1136 16.0868 27.53C22.9864 26.9465 28.1066 20.8801 27.523 13.9805C26.9394 7.08082 20.8731 1.96066 13.9735 2.5442C10.9862 2.79686 8.18835 4.11158 6.08723 6.24996H9.98975C10.6801 6.24996 11.2397 6.80959 11.2397 7.49994C11.2397 8.19029 10.6801 8.74992 9.98975 8.74992H4.811C3.52932 8.74922 2.49046 7.71035 2.48975 6.42867V1.24998C2.48975 0.559629 3.04938 0 3.73973 0C4.43009 0 4.98972 0.559629 4.98972 1.24998V3.8475C11.1593 -1.66553 20.63 -1.13326 26.1431 5.03637C31.6561 11.206 31.1238 20.6766 24.9542 26.1896C18.7846 31.7027 9.31393 31.1704 3.80091 25.0008C1.65784 22.6025 0.343464 19.5781 0.0522537 16.375C-0.0119648 15.6827 0.497156 15.0696 1.18938 15.0053C1.22647 15.0019 1.26368 15.0001 1.301 15Z" fill="white"/>
<path d="M11.9206 19V11.85L12.5476 12.499H10.2926V11.3H13.3506V19H11.9206ZM18.09 19.11C17.4814 19.11 16.9314 18.956 16.44 18.648C15.956 18.34 15.5747 17.8927 15.296 17.306C15.0174 16.712 14.878 15.9933 14.878 15.15C14.878 14.3067 15.0174 13.5917 15.296 13.005C15.5747 12.411 15.956 11.96 16.44 11.652C16.9314 11.344 17.4814 11.19 18.09 11.19C18.706 11.19 19.256 11.344 19.74 11.652C20.224 11.96 20.6054 12.411 20.884 13.005C21.17 13.5917 21.313 14.3067 21.313 15.15C21.313 15.9933 21.17 16.712 20.884 17.306C20.6054 17.8927 20.224 18.34 19.74 18.648C19.256 18.956 18.706 19.11 18.09 19.11ZM18.09 17.867C18.4494 17.867 18.761 17.7717 19.025 17.581C19.289 17.383 19.4944 17.0823 19.641 16.679C19.795 16.2757 19.872 15.766 19.872 15.15C19.872 14.5267 19.795 14.017 19.641 13.621C19.4944 13.2177 19.289 12.9207 19.025 12.73C18.761 12.532 18.4494 12.433 18.09 12.433C17.7454 12.433 17.4374 12.532 17.166 12.73C16.902 12.9207 16.693 13.2177 16.539 13.621C16.3924 14.017 16.319 14.5267 16.319 15.15C16.319 15.766 16.3924 16.2757 16.539 16.679C16.693 17.0823 16.902 17.383 17.166 17.581C17.4374 17.7717 17.7454 17.867 18.09 17.867Z" fill="white"/>
</g>
<defs>
<clipPath id="clip0_60_1775">
<rect width="30" height="30" fill="white" transform="matrix(-1 0 0 1 30 0)"/>
</clipPath>
</defs>
</svg>
