<svg width="30" height="30" viewBox="0 0 30 30" fill="none" xmlns="http://www.w3.org/2000/svg">
<g clip-path="url(#clip0_60_1834)">
<path d="M13.0251 25.8201C12.0205 25.8191 11.0426 25.4972 10.2339 24.9013L1.9326 18.8138C1.33422 18.3744 0.847663 17.8003 0.512304 17.138C0.176945 16.4757 0.00219727 15.7437 0.00219727 15.0013C0.00219727 14.2589 0.176945 13.527 0.512304 12.8646C0.847663 12.2023 1.33422 11.6282 1.9326 11.1888L10.2339 5.10131C10.9147 4.601 11.7172 4.29224 12.5578 4.20715C13.3984 4.12206 14.2464 4.26374 15.0137 4.61747C15.781 4.97119 16.4395 5.52403 16.9207 6.21849C17.402 6.91295 17.6884 7.72367 17.7501 8.56631L22.4776 5.09881C23.1824 4.58325 24.0162 4.27287 24.8866 4.20208C25.757 4.13128 26.6301 4.30283 27.4089 4.69771C28.1878 5.09259 28.8422 5.69539 29.2996 6.43933C29.7569 7.18326 29.9994 8.03929 30.0001 8.91256V21.0876C29.9999 21.9615 29.7576 22.8182 29.3 23.5628C28.8425 24.3073 28.1876 24.9106 27.4081 25.3056C26.6286 25.7006 25.7548 25.8719 24.8839 25.8006C24.0129 25.7292 23.1787 25.4179 22.4739 24.9013L17.7501 21.4338C17.6615 22.6256 17.1257 23.7399 16.2502 24.5534C15.3746 25.3668 14.224 25.8193 13.0289 25.8201H13.0251ZM16.5089 17.7263C16.775 17.7263 17.0343 17.8112 17.2488 17.9688L23.9526 22.8851C24.2849 23.1284 24.678 23.2749 25.0885 23.3085C25.4989 23.342 25.9107 23.2612 26.278 23.0751C26.6454 22.8889 26.954 22.6047 27.1697 22.2539C27.3854 21.9031 27.4998 21.4994 27.5001 21.0876V8.91256C27.4995 8.50071 27.3849 8.09706 27.1691 7.74632C26.9532 7.39558 26.6445 7.11142 26.2771 6.92532C25.9097 6.73923 25.4979 6.65845 25.0874 6.69194C24.6769 6.72543 24.2837 6.87187 23.9513 7.11506L17.2501 12.0313C17.0639 12.1681 16.8433 12.2506 16.613 12.2696C16.3827 12.2887 16.1517 12.2435 15.9455 12.1391C15.7393 12.0347 15.5661 11.8752 15.4451 11.6784C15.3241 11.4815 15.2601 11.2549 15.2601 11.0238V8.91256C15.26 8.50052 15.1457 8.09658 14.9299 7.74556C14.7141 7.39454 14.4053 7.11016 14.0377 6.92398C13.6702 6.73779 13.2582 6.65709 12.8475 6.69082C12.4369 6.72455 12.0436 6.87139 11.7114 7.11506L3.41135 13.2026C3.12898 13.4096 2.89935 13.6802 2.74106 13.9925C2.58278 14.3048 2.5003 14.6499 2.5003 15.0001C2.5003 15.3502 2.58278 15.6954 2.74106 16.0077C2.89935 16.32 3.12898 16.5906 3.41135 16.7976L11.7114 22.8851C12.0436 23.1284 12.4368 23.2749 12.8472 23.3085C13.2577 23.342 13.6694 23.2612 14.0368 23.0751C14.4041 22.8889 14.7128 22.6047 14.9285 22.2539C15.1442 21.9031 15.2585 21.4994 15.2589 21.0876V18.9763C15.2589 18.6448 15.3905 18.3268 15.625 18.0924C15.8594 17.858 16.1773 17.7263 16.5089 17.7263Z" fill="white"/>
</g>
<defs>
<clipPath id="clip0_60_1834">
<rect width="30" height="30" fill="white"/>
</clipPath>
</defs>
</svg>
