<svg width="30" height="30" viewBox="0 0 30 30" fill="none" xmlns="http://www.w3.org/2000/svg">
<g clip-path="url(#clip0_60_1835)">
<path d="M16.9749 25.8201C17.9795 25.8191 18.9574 25.4972 19.7661 24.9013L28.0674 18.8138C28.6658 18.3744 29.1523 17.8003 29.4877 17.138C29.8231 16.4757 29.9978 15.7437 29.9978 15.0013C29.9978 14.2589 29.8231 13.527 29.4877 12.8646C29.1523 12.2023 28.6658 11.6282 28.0674 11.1888L19.7661 5.10131C19.0853 4.601 18.2828 4.29224 17.4422 4.20715C16.6016 4.12206 15.7536 4.26374 14.9863 4.61747C14.219 4.97119 13.5605 5.52403 13.0793 6.21849C12.598 6.91295 12.3116 7.72367 12.2499 8.56631L7.5224 5.09881C6.81756 4.58325 5.98375 4.27287 5.11335 4.20208C4.24296 4.13128 3.36995 4.30283 2.59106 4.69771C1.81217 5.09259 1.1578 5.69539 0.700449 6.43933C0.243101 7.18326 0.000629425 8.03929 -9.91821e-05 8.91256V21.0876C0.000123978 21.9615 0.242443 22.8182 0.699978 23.5628C1.15751 24.3073 1.81237 24.9106 2.59191 25.3056C3.37144 25.7006 4.24516 25.8719 5.11614 25.8006C5.98713 25.7292 6.82131 25.4179 7.52615 24.9013L12.2499 21.4338C12.3385 22.6256 12.8743 23.7399 13.7498 24.5534C14.6254 25.3668 15.776 25.8193 16.9711 25.8201H16.9749ZM13.4911 17.7263C13.225 17.7263 12.9657 17.8112 12.7512 17.9688L6.0474 22.8851C5.71513 23.1284 5.32198 23.2749 4.91152 23.3085C4.50106 23.342 4.08933 23.2612 3.72198 23.0751C3.35461 22.8889 3.04597 22.6047 2.83027 22.2539C2.61456 21.9031 2.50021 21.4994 2.4999 21.0876V8.91256C2.5005 8.50071 2.61508 8.09706 2.83094 7.74632C3.0468 7.39558 3.35554 7.11142 3.72294 6.92532C4.09035 6.73923 4.50209 6.65845 4.91257 6.69194C5.32306 6.72543 5.71627 6.87187 6.04865 7.11506L12.7499 12.0313C12.9361 12.1681 13.1567 12.2506 13.387 12.2696C13.6173 12.2887 13.8483 12.2435 14.0545 12.1391C14.2607 12.0347 14.4339 11.8752 14.5549 11.6784C14.6759 11.4815 14.7399 11.2549 14.7399 11.0238V8.91256C14.74 8.50052 14.8543 8.09658 15.0701 7.74556C15.2859 7.39454 15.5947 7.11016 15.9623 6.92398C16.3298 6.73779 16.7418 6.65709 17.1525 6.69082C17.5631 6.72455 17.9564 6.87139 18.2886 7.11506L26.5886 13.2026C26.871 13.4096 27.1007 13.6802 27.2589 13.9925C27.4172 14.3048 27.4997 14.6499 27.4997 15.0001C27.4997 15.3502 27.4172 15.6954 27.2589 16.0077C27.1007 16.32 26.871 16.5906 26.5886 16.7976L18.2886 22.8851C17.9564 23.1284 17.5632 23.2749 17.1528 23.3085C16.7423 23.342 16.3306 23.2612 15.9632 23.0751C15.5959 22.8889 15.2872 22.6047 15.0715 22.2539C14.8558 21.9031 14.7415 21.4994 14.7411 21.0876V18.9763C14.7411 18.6448 14.6095 18.3268 14.375 18.0924C14.1406 17.858 13.8227 17.7263 13.4911 17.7263Z" fill="white"/>
</g>
<defs>
<clipPath id="clip0_60_1835">
<rect width="30" height="30" fill="white" transform="matrix(-1 0 0 1 30 0)"/>
</clipPath>
</defs>
</svg>
