<svg width="30" height="30" viewBox="0 0 30 30" fill="none" xmlns="http://www.w3.org/2000/svg">
<g clip-path="url(#clip0_60_1781)">
<path d="M28.699 15C28.0667 14.9917 27.5316 15.4652 27.4627 16.0938C26.8792 22.9934 20.8129 28.1136 13.9132 27.53C7.01357 26.9465 1.89341 20.8801 2.477 13.9805C3.0606 7.08082 9.12687 1.96066 16.0265 2.5442C19.0138 2.79686 21.8117 4.11158 23.9128 6.24996H20.0102C19.3199 6.24996 18.7603 6.80959 18.7603 7.49994C18.7603 8.19029 19.3199 8.74992 20.0102 8.74992H25.189C26.4707 8.74922 27.5095 7.71035 27.5102 6.42867V1.24998C27.5102 0.559629 26.9506 0 26.2603 0C25.5699 0 25.0103 0.559629 25.0103 1.24998V3.8475C18.8407 -1.66553 9.36997 -1.13326 3.85694 5.03637C-1.65608 11.206 -1.12382 20.6766 5.04581 26.1896C11.2154 31.7027 20.6861 31.1704 26.1991 25.0008C28.3422 22.6025 29.6565 19.5781 29.9477 16.375C30.012 15.6827 29.5028 15.0696 28.8106 15.0053C28.7735 15.0019 28.7363 15.0001 28.699 15Z" fill="white"/>
<path d="M11.9206 19V11.85L12.5476 12.499H10.2926V11.3H13.3506V19H11.9206ZM18.09 19.11C17.4814 19.11 16.9314 18.956 16.44 18.648C15.956 18.34 15.5747 17.8927 15.296 17.306C15.0174 16.712 14.878 15.9933 14.878 15.15C14.878 14.3067 15.0174 13.5917 15.296 13.005C15.5747 12.411 15.956 11.96 16.44 11.652C16.9314 11.344 17.4814 11.19 18.09 11.19C18.706 11.19 19.256 11.344 19.74 11.652C20.224 11.96 20.6054 12.411 20.884 13.005C21.17 13.5917 21.313 14.3067 21.313 15.15C21.313 15.9933 21.17 16.712 20.884 17.306C20.6054 17.8927 20.224 18.34 19.74 18.648C19.256 18.956 18.706 19.11 18.09 19.11ZM18.09 17.867C18.4494 17.867 18.761 17.7717 19.025 17.581C19.289 17.383 19.4944 17.0823 19.641 16.679C19.795 16.2757 19.872 15.766 19.872 15.15C19.872 14.5267 19.795 14.017 19.641 13.621C19.4944 13.2177 19.289 12.9207 19.025 12.73C18.761 12.532 18.4494 12.433 18.09 12.433C17.7454 12.433 17.4374 12.532 17.166 12.73C16.902 12.9207 16.693 13.2177 16.539 13.621C16.3924 14.017 16.319 14.5267 16.319 15.15C16.319 15.766 16.3924 16.2757 16.539 16.679C16.693 17.0823 16.902 17.383 17.166 17.581C17.4374 17.7717 17.7454 17.867 18.09 17.867Z" fill="white"/>
</g>
<defs>
<clipPath id="clip0_60_1781">
<rect width="30" height="30" fill="white" transform="matrix(-1 0 0 1 30 0)"/>
</clipPath>
</defs>
</svg>
